# xmcd
#
# Track frame offsets:
#	150
#	15362
#	29955
#	42532
#	56805
#	70677
#	82992
#	96937
#	113730
#	125837
#
# Disc length: 1891 seconds
#
# Revision: 2
# Processed by: cddbd v1.5.2PL0 Copyright (c) Steve Scherf et al.
# Submitted via: audiograbber 1.83.01
#
DISCID=8907610a
DTITLE=Johnny Rodriguez - Johnny Rodriguez - Super Hits
DYEAR=1995
DGENRE=Country
TTITLE0=Let's Leave The Lights On Tonight
TTITLE1=How Could I Love Her So Much
TTITLE2=Foolin'
TTITLE3=Trying Not To Love You
TTITLE4=Eleven Roses
TTITLE5=Back On Her Mind Again
TTITLE6=Love, Look At Us Now
TTITLE7=North Of The Border
TTITLE8=Fools For Each Other
TTITLE9=Down On The Rio Grande
EXTD=
EXTT0=
EXTT1=
EXTT2=
EXTT3=
EXTT4=
EXTT5=
EXTT6=
EXTT7=
EXTT8=
EXTT9=
PLAYORDER=
